HIERARCHY
ROOT Hips
{
	OFFSET 0.000000 0.000000 0.000000
	CHANNELS 6 Xposition Yposition Zposition Yrotation Xrotation Zrotation 
	JOINT LeftHip
	{
		OFFSET 0.094196 0.000343 -0.000038
		CHANNELS 3 Yrotation Xrotation Zrotation
		JOINT LeftKnee
		{
			OFFSET 0.000000 -0.468901 0.000041
			CHANNELS 3 Yrotation Xrotation Zrotation
			JOINT LeftAnkle
			{
				OFFSET 0.000000 -0.397674 0.000438
				CHANNELS 3 Yrotation Xrotation Zrotation
				JOINT LeftToe
				{
					OFFSET 0.000000 -0.090712 0.195501
					CHANNELS 3 Yrotation Xrotation Zrotation
					End Site
					{
						OFFSET 0.000000 0.000000 0.000000
					}
				}
			}
		}
	}
	JOINT RightHip
	{
		OFFSET -0.094196 0.000364 -0.000040
		CHANNELS 3 Yrotation Xrotation Zrotation
		JOINT RightKnee
		{
			OFFSET 0.000000 -0.468901 0.000041
			CHANNELS 3 Yrotation Xrotation Zrotation
			JOINT RightAnkle
			{
				OFFSET 0.000000 -0.397674 0.000438
				CHANNELS 3 Yrotation Xrotation Zrotation
				JOINT RightToe
				{
					OFFSET 0.000000 -0.090712 0.195501
					CHANNELS 3 Yrotation Xrotation Zrotation
					End Site
					{
						OFFSET 0.000000 0.000000 0.000000
					}
				}
			}
		}
	}
	JOINT Chest
	{
		OFFSET 0.000000 0.113860 -0.012651
		CHANNELS 3 Yrotation Xrotation Zrotation
		JOINT Chest3
		{
			OFFSET -0.002400 0.210882 -0.005802
			CHANNELS 3 Yrotation Xrotation Zrotation
			JOINT Chest4
			{
				OFFSET 0.000000 0.100637 -0.000145
				CHANNELS 3 Yrotation Xrotation Zrotation
				JOINT Neck
				{
					OFFSET 0.000000 0.138831 0.000000
					CHANNELS 3 Yrotation Xrotation Zrotation
					JOINT Head
					{
						OFFSET 0.000000 0.095420 0.000176
						CHANNELS 3 Yrotation Xrotation Zrotation
						End Site
						{
							OFFSET 0.000000 0.000000 0.000000
						}
					}
				}
				JOINT LeftCollar
				{
					OFFSET 0.029338 0.077908 0.000000
					CHANNELS 3 Yrotation Xrotation Zrotation
					JOINT LeftShoulder
					{
						OFFSET 0.140442 0.000000 0.000000
						CHANNELS 3 Yrotation Xrotation Zrotation
						JOINT LeftElbow
						{
							OFFSET 0.303173 0.000000 0.000000
							CHANNELS 3 Yrotation Xrotation Zrotation
							JOINT LeftWrist
							{
								OFFSET 0.261212 0.000000 0.000049
								CHANNELS 3 Yrotation Xrotation Zrotation
								End Site
								{
									OFFSET 0.000000 0.000000 0.000000
								}
							}
						}
					}
				}
				JOINT RightCollar
				{
					OFFSET -0.029338 0.077908 0.000000
					CHANNELS 3 Yrotation Xrotation Zrotation
					JOINT RightShoulder
					{
						OFFSET -0.140442 0.000000 0.000000
						CHANNELS 3 Yrotation Xrotation Zrotation
						JOINT RightElbow
						{
							OFFSET -0.303173 0.000000 0.000000
							CHANNELS 3 Yrotation Xrotation Zrotation
							JOINT RightWrist
							{
								OFFSET -0.261212 0.000000 0.000049
								CHANNELS 3 Yrotation Xrotation Zrotation
								End Site
								{
									OFFSET 0.000000 0.000000 0.000000
								}
							}
						}
					}
				}
			}
		}
	}
}
MOTION
Frames: 16
Frame Time: 0.016667
0.000000 0.000000 0.000000 175.642232 -0.694578 -1.411819 6.564986 1.236569 4.404369 1.297651 4.921765 0.103609 8.815203 -5.099590 -3.217716 0.000000 -0.000000 0.000000 -15.840445 2.127871 -3.412414 -1.621406 3.417719 -0.258782 -0.381635 -2.847266 3.325227 0.000000 -0.000000 0.000000 1.954881 5.011439 1.904021 1.557783 -1.371854 1.678847 0.637649 7.509511 0.679841 -1.775035 23.156862 0.764713 -3.396225 7.016214 1.841896 -3.539892 3.400103 -11.001095 -7.106412 -18.663218 -74.493843 -3.419756 24.907439 6.808460 2.290017 1.957442 18.716401 6.946494 6.935968 10.368813 0.206875 -17.869926 69.498694 -4.753325 13.173046 -9.816514 -6.392197 2.688032 -16.722189 
0.000000 0.000000 0.000000 175.745583 -0.692127 -1.406393 6.518422 1.281337 4.409760 1.267578 4.925725 0.108211 8.795287 -5.139794 -3.239577 0.000000 -0.000000 0.000000 -15.840204 2.213180 -3.426107 -1.706540 3.406303 -0.266086 -0.403765 -2.927115 3.338838 0.000000 -0.000000 0.000000 1.905367 5.027321 1.876191 1.516370 -1.357939 1.654328 0.621242 7.514541 0.669326 -1.898930 22.857879 0.870979 -3.654009 6.468898 2.074544 -3.485104 3.341358 -11.031516 -6.462494 -18.500837 -74.847025 -1.473736 20.277900 7.007653 1.293847 1.801663 20.116604 6.827501 6.788598 10.273744 -0.281028 -17.591856 69.721541 -5.813053 10.979460 -9.588362 -5.784624 2.688248 -16.780479 
0.000000 0.000000 0.000000 175.857247 -0.686896 -1.403833 6.483160 1.316975 4.416218 1.222655 4.929481 0.113779 8.770022 -5.176642 -3.259595 0.000000 -0.000000 0.000000 -15.843806 2.292942 -3.437436 -1.794418 3.395934 -0.270638 -0.427797 -3.001415 3.352161 0.000000 -0.000000 0.000000 1.848870 5.050580 1.844744 1.469081 -1.337489 1.626603 0.602502 7.521999 0.657412 -2.019353 22.556197 0.985950 -3.909294 5.917516 2.323433 -3.436608 3.278013 -11.054582 -5.756556 -18.337162 -75.143854 0.118944 16.132661 7.156442 0.738666 1.921392 20.639169 6.687676 6.658282 10.159480 -0.767966 -17.232989 69.946461 -6.559915 9.132326 -9.387231 -5.059142 2.675449 -16.770215 
0.000000 0.000000 0.000000 175.967260 -0.680320 -1.401186 6.441416 1.343925 4.425141 1.178374 4.933626 0.117011 8.751242 -5.207908 -3.278510 0.000000 -0.000000 0.000000 -15.853559 2.358992 -3.444457 -1.878595 3.396026 -0.274192 -0.446502 -3.072870 3.361140 0.000000 -0.000000 0.000000 1.796420 5.080149 1.817472 1.424985 -1.311403 1.602538 0.585060 7.531593 0.646962 -2.150661 22.258269 1.090504 -4.182726 5.373847 2.557764 -3.377313 3.210105 -11.078824 -5.095389 -18.119324 -75.370399 1.442077 12.940684 7.284202 0.203246 1.989542 20.874482 6.562315 6.513540 10.045528 -1.253903 -16.792735 70.187229 -7.015318 7.575359 -9.211956 -4.437005 2.575762 -16.806968 
0.000000 0.000000 0.000000 176.074191 -0.673472 -1.397054 6.382046 1.361828 4.437624 1.140090 4.939702 0.115948 8.745721 -5.232859 -3.296753 0.000000 -0.000000 0.000000 -15.870827 2.407588 -3.446356 -1.958327 3.413075 -0.277165 -0.456864 -3.144585 3.363615 0.000000 -0.000000 0.000000 1.753338 5.117144 1.797966 1.388472 -1.278667 1.585286 0.570663 7.543722 0.639294 -2.300972 21.964464 1.177238 -4.486921 4.838629 2.766499 -3.297419 3.129602 -11.109213 -4.522437 -17.820070 -75.498302 2.525511 10.971190 7.466514 -0.466562 1.841951 20.922902 6.467141 6.331932 9.936375 -1.723317 -16.231408 70.454670 -7.164327 6.250753 -9.094955 -3.997081 2.330811 -16.880912 
0.000000 0.000000 0.000000 176.179473 -0.665283 -1.392830 6.316194 1.371038 4.452535 1.102438 4.946165 0.112523 8.746684 -5.252217 -3.313912 0.000000 -0.000000 0.000000 -15.894230 2.442448 -3.444045 -2.034358 3.440560 -0.279199 -0.461871 -3.213463 3.361719 0.000000 -0.000000 0.000000 1.714306 5.160436 1.782665 1.355155 -1.240307 1.571720 0.557565 7.557981 0.633101 -2.461656 21.674260 1.253861 -4.808348 4.310871 2.961288 -3.206733 3.044578 -11.141019 -3.994128 -17.469281 -75.554443 3.382581 9.956000 7.735586 -1.072577 1.654054 20.710314 6.386513 6.135977 9.827402 -2.189186 -15.588869 70.735577 -7.015631 5.211702 -9.025378 -3.655283 1.992656 -17.018380 
0.000000 0.000000 0.000000 176.277443 -0.653981 -1.389750 6.259507 1.373069 4.467920 1.064830 4.948987 0.109250 8.745641 -5.265937 -3.329485 0.000000 -0.000000 0.000000 -15.921970 2.466597 -3.438198 -2.102475 3.468368 -0.280911 -0.463301 -3.272922 3.357818 0.000000 -0.000000 0.000000 1.674405 5.205587 1.768615 1.320944 -1.200289 1.559263 0.544158 7.572862 0.627303 -2.621754 21.392660 1.323895 -5.127863 3.799482 3.145162 -3.117527 2.979230 -11.168156 -3.487255 -17.099002 -75.607764 4.061846 9.556840 8.037690 -1.605775 1.592866 20.499771 6.308664 5.961712 9.724363 -2.696275 -14.983939 71.008931 -6.627728 4.569705 -8.934091 -3.376799 1.649649 -17.397515 
0.000000 0.000000 0.000000 176.370067 -0.637916 -1.387321 6.213474 1.366694 4.481915 1.027161 4.946655 0.107048 8.739603 -5.272982 -3.343106 0.000000 -0.000000 0.000000 -15.956365 2.478669 -3.429806 -2.164034 3.495530 -0.282575 -0.459789 -3.321773 3.353009 0.000000 -0.000000 0.000000 1.630134 5.253063 1.754805 1.282822 -1.158212 1.547035 0.529276 7.588508 0.621479 -2.780038 21.116677 1.386779 -5.443148 3.298811 3.316836 -3.034639 2.944182 -11.187655 -3.008749 -16.696573 -75.685928 4.560932 9.807623 8.406728 -2.059315 1.760687 20.382634 6.225576 5.827230 9.627444 -3.297812 -14.445620 71.287364 -5.970515 4.410266 -8.800129 -3.118478 1.356125 -18.202366 
0.000000 0.000000 0.000000 176.455380 -0.618733 -1.386022 6.176604 1.353144 4.496371 0.989541 4.940685 0.104989 8.731554 -5.274392 -3.355138 0.000000 -0.000000 0.000000 -15.995095 2.480027 -3.417918 -2.217683 3.523010 -0.283959 -0.452694 -3.361204 3.346187 0.000000 -0.000000 0.000000 1.584993 5.302390 1.742242 1.243807 -1.114483 1.535912 0.514085 7.604773 0.616048 -2.937517 20.849244 1.443271 -5.756008 2.814319 3.477751 -2.953192 2.928787 -11.202365 -2.551867 -16.274246 -75.761947 4.898286 10.672858 8.844107 -2.448249 2.051768 20.291173 6.145127 5.714392 9.536435 -3.941543 -13.943726 71.558439 -5.074543 4.647349 -8.645637 -2.917051 1.064433 -19.258878 
0.000000 0.000000 0.000000 176.521821 -0.599601 -1.388561 6.160072 1.337618 4.514904 0.951710 4.931593 0.102825 8.721975 -5.273238 -3.366169 0.000000 -0.000000 0.000000 -16.029405 2.477802 -3.400288 -2.255151 3.543606 -0.284911 -0.447891 -3.388192 3.336436 0.000000 -0.000000 0.000000 1.544577 5.347722 1.730959 1.208878 -1.074290 1.525923 0.500482 7.619727 0.611178 -3.086772 20.604297 1.498562 -6.053645 2.371613 3.634247 -2.870863 2.925308 -11.214755 -2.072948 -15.900533 -75.823904 5.142385 11.714607 9.217762 -2.803732 2.319140 20.237154 6.079371 5.604894 9.456506 -4.517314 -13.510086 71.766759 -4.091589 5.134751 -8.464869 -2.859502 0.705880 -20.206509 
0.000000 0.000000 0.000000 176.564655 -0.580787 -1.396047 6.181670 1.319784 4.540855 0.904238 4.917381 0.098577 8.706847 -5.268878 -3.375298 0.000000 -0.000000 0.000000 -16.056350 2.472542 -3.374420 -2.272315 3.554807 -0.285621 -0.447973 -3.400270 3.322536 0.000000 -0.000000 0.000000 1.510051 5.388426 1.723626 1.178819 -1.038188 1.519428 0.488833 7.633169 0.607782 -3.226103 20.384320 1.549688 -6.331920 1.974987 3.780089 -2.774162 2.935275 -11.227526 -1.540374 -15.606245 -75.866852 5.307919 12.943402 9.477199 -3.119120 2.519785 20.238747 6.036946 5.480055 9.387002 -5.025934 -13.141151 71.896885 -3.014608 5.894456 -8.237923 -3.041727 0.183091 -20.876723 
0.000000 0.000000 0.000000 176.588614 -0.562017 -1.407391 6.223600 1.299948 4.570846 0.856560 4.900043 0.094217 8.690187 -5.261956 -3.383428 0.000000 -0.000000 0.000000 -16.078879 2.463712 -3.342816 -2.273296 3.559131 -0.285912 -0.450353 -3.399907 3.305714 0.000000 -0.000000 0.000000 1.480263 5.425134 1.717532 1.152860 -1.005627 1.514028 0.478775 7.645297 0.604928 -3.357219 20.186767 1.599269 -6.594654 1.619938 3.920446 -2.676552 2.957160 -11.237929 -0.985031 -15.360853 -75.897490 5.378078 14.354457 9.670432 -3.397960 2.697177 20.276316 6.009254 5.358628 9.328409 -5.470121 -12.843718 71.968534 -1.844090 6.899418 -7.971531 -3.377814 -0.409692 -21.439663 
0.000000 0.000000 0.000000 176.596343 -0.545652 -1.422020 6.243656 1.284319 4.598467 0.836706 4.886100 0.095428 8.684532 -5.257478 -3.393846 0.000000 -0.000000 0.000000 -16.097067 2.456815 -3.310727 -2.262191 3.556912 -0.285076 -0.453133 -3.391486 3.288734 0.000000 -0.000000 0.000000 1.457316 5.453898 1.704626 1.133642 -0.980140 1.502595 0.471113 7.654780 0.600006 -3.478093 20.018160 1.660502 -6.841434 1.319198 4.078023 -2.616120 2.978604 -11.240163 -0.456671 -15.141123 -75.921655 5.361479 15.489619 9.791758 -3.685279 2.835336 20.296581 5.982454 5.278527 9.287523 -5.744160 -12.667084 71.982483 -0.744832 7.930569 -7.713276 -3.685269 -0.858281 -22.041232 
0.000000 0.000000 0.000000 176.584509 -0.532425 -1.440647 6.221977 1.275216 4.620309 0.861393 4.878517 0.106585 8.696742 -5.257296 -3.408745 0.000000 -0.000000 0.000000 -16.110816 2.452710 -3.279678 -2.236725 3.547577 -0.282693 -0.455275 -3.374531 3.272675 0.000000 -0.000000 0.000000 1.440729 5.473189 1.679285 1.121275 -0.963109 1.480159 0.465752 7.661091 0.591141 -3.584624 19.886015 1.740898 -7.066582 1.087001 4.264593 -2.617229 2.994916 -11.231510 0.065187 -14.937073 -75.940451 5.237517 16.182822 9.814873 -4.013795 2.935986 20.247457 5.942050 5.256329 9.267759 -5.782332 -12.646000 71.927321 0.215157 8.917952 -7.470770 -3.934714 -1.061383 -22.743535 
0.000000 0.000000 0.000000 176.556445 -0.521618 -1.462572 6.178432 1.270401 4.639834 0.913897 4.874350 0.123313 8.719959 -5.259546 -3.425925 0.000000 -0.000000 0.000000 -16.120224 2.450557 -3.248146 -2.199169 3.531705 -0.279187 -0.457822 -3.349518 3.256455 0.000000 -0.000000 0.000000 1.430973 5.484512 1.647119 1.115641 -0.953172 1.451682 0.462786 7.664748 0.580200 -3.681209 19.783031 1.832389 -7.275993 0.909585 4.467054 -2.655458 3.010902 -11.214544 0.560494 -14.759090 -75.953795 5.020915 16.602162 9.749826 -4.351743 2.998067 20.176119 5.902534 5.275583 9.265485 -5.651628 -12.746844 71.817451 1.106640 9.930623 -7.240887 -4.168037 -1.113631 -23.479326 
0.000000 0.000000 0.000000 176.524792 -0.513413 -1.485098 6.130411 1.269277 4.660968 0.972081 4.871266 0.138169 8.746145 -5.263658 -3.442086 0.000000 -0.000000 0.000000 -16.125651 2.453299 -3.216813 -2.160438 3.511364 -0.275124 -0.461997 -3.322250 3.239591 0.000000 -0.000000 0.000000 1.431578 5.488488 1.616942 1.119040 -0.949746 1.424944 0.463300 7.665991 0.570187 -3.778661 19.693499 1.924745 -7.486858 0.757732 4.670835 -2.695704 3.028373 -11.191366 0.918535 -14.614178 -75.965436 4.773277 16.789880 9.643053 -4.648714 3.001680 20.177516 5.893511 5.324605 9.276919 -5.445075 -12.915790 71.692419 1.966829 10.962515 -7.066378 -4.308977 -1.091584 -24.204467 
